<svg width="24" height="25" viewBox="0 0 24 25" fill="none"
  xmlns="http://www.w3.org/2000/svg">
  <g clip-path="url(#clip0_8_3544)">
    <path d="M11.9163 5L11.5 4.5L1 20.5H8.25L11.5087 15.5337L11.9163 14.6512V5Z" fill="#FBBC04"/>
    <path d="M11.5 4.5H18V20.5H11.5V4.5Z" fill="#1A73E8"/>
    <path d="M4.5 10.5C6.15685 10.5 7.5 9.15685 7.5 7.5C7.5 5.84315 6.15685 4.5 4.5 4.5C2.84315 4.5 1.5 5.84315 1.5 7.5C1.5 9.15685 2.84315 10.5 4.5 10.5Z" fill="#EA4335"/>
    <path d="M18.5 16L18 20.5C15.515 20.5 13.5 18.485 13.5 16C13.5 13.515 15.515 11.5 18 11.5L18.5 16Z" fill="#0D652D"/>
    <path d="M14.5 8C14.5 6.0675 16.0675 4.5 18 4.5L18.625 8L18 11.5C16.0675 11.5 14.5 9.9325 14.5 8Z" fill="#174EA6"/>
    <path d="M18 4.5C19.9325 4.5 21.5 6.0675 21.5 8C21.5 9.9325 19.9325 11.5 18 11.5" fill="#1A73E8"/>
    <path d="M18 11.5C20.485 11.5 22.5 13.515 22.5 16C22.5 18.485 20.485 20.5 18 20.5" fill="#34A853"/>
  </g>
  <defs>
    <clipPath id="clip0_8_3544">
      <rect width="24" height="24" fill="white" transform="translate(0 0.5)"/>
    </clipPath>
  </defs>
</svg>
