<svg width="140" height="79" viewBox="0 0 140 79" fill="none"
  xmlns="http://www.w3.org/2000/svg">
  <path d="M4.95876 52.5518C3.44686 52.9155 1.88364 53.2315 0.267578 53.4961C1.91407 53.1149 3.47659 52.8016 4.95876 52.5518C32.7521 45.8657 43.2038 23.0602 45.8148 7.38913C45.9423 4.68879 46.1923 2.18737 46.5153 0C46.4846 2.16751 46.2676 4.671 45.8148 7.38913C45.0505 23.5688 48.68 46.8904 67.3101 52.5933C68.7569 52.8319 70.0877 53.1426 71.2676 53.4961C69.8787 53.2795 68.5606 52.9761 67.3101 52.5933C56.079 50.7411 37.8557 53.2301 28.9324 73.7183C28.3951 75.5949 27.714 77.3888 26.974 79C27.5614 77.119 28.217 75.3608 28.9324 73.7183C32.148 62.4882 30.2161 48.2953 4.95876 52.5518Z" fill="#FDC62D"/>
  <path d="M79.2676 35.7175C117 25 115.5 17.5 121 0C121 16.4943 114.596 30.8577 137.538 35.3339C138.303 35.3834 139.036 35.5092 139.731 35.7175C138.972 35.5991 138.241 35.4711 137.538 35.3339C126.112 34.5958 107.466 50.879 99.4995 64C104.928 52.1811 117 33 79.2676 35.7175Z" fill="#FDC62D"/>
</svg>
